<svg xmlns="http://www.w3.org/2000/svg" viewBox="0 0 120 150" role="img" aria-label="Mekanik Nearby">
  <defs>
    <linearGradient id="pinGlow" x1="60" y1="0" x2="60" y2="130" gradientUnits="userSpaceOnUse">
      <stop offset="0%" stop-color="#FF5252"/>
      <stop offset="100%" stop-color="#D32F2F"/>
    </linearGradient>
  </defs>
  <path d="M60 4C34 4 12 26 12 52c0 34 48 94 48 94s48-60 48-94C108 26 86 4 60 4z" fill="url(#pinGlow)"/>
  <circle cx="60" cy="48" r="30" fill="#111111"/>
  <path d="M34 58c0-8 6-14 14-14h6c6 0 10 4 10 10v2H34v2z" fill="#5C6BC0"/>
  <rect x="36" y="56" width="22" height="10" rx="2" fill="#5C6BC0"/>
  <circle cx="42" cy="68" r="4" fill="#3949AB"/>
  <circle cx="54" cy="68" r="4" fill="#3949AB"/>
  <path d="M66 38h6c3 0 5 2 5 5v32c0 3-2 5-5 5h-4c-2 0-3-1-3-3V41c0-2 1-3 3-3z" fill="#5C6BC0"/>
  <rect x="68" y="44" width="10" height="4" rx="1" fill="#3949AB"/>
  <rect x="68" y="54" width="10" height="4" rx="1" fill="#3949AB"/>
  <rect x="68" y="64" width="10" height="4" rx="1" fill="#3949AB"/>
</svg>
